<?xml version="1.0" encoding="utf-8"?>
<!-- Generator: Adobe Illustrator 23.0.3, SVG Export Plug-In . SVG Version: 6.00 Build 0)  -->
<svg version="1.1" xmlns="http://www.w3.org/2000/svg" xmlns:xlink="http://www.w3.org/1999/xlink" x="0px" y="0px"
	 viewBox="0 0 285 285.49" style="enable-background:new 0 0 285 285.49;" xml:space="preserve">
<style type="text/css">
	.st0{fill:#BC2E2E;}
</style>
<g id="Layer_1">
</g>
<g id="Layer_2">
	<g>
		<path class="st0" d="M70.57,34.85c0.63-0.76,1.27-1.51,1.91-2.26c-2.43,0.73-4.99,0.99-7.34,1.94c-0.09,0.05-0.17,0.11-0.25,0.16
			C66.81,34.75,68.7,34.8,70.57,34.85z"/>
		<path class="st0" d="M74.83,33.14c-0.8,0.58-1.6,1.23-2.45,1.75c0.59,0.01,1.2,0.03,1.78,0.04c4.4-3.12,9.02-5.94,13.5-8.91
			C83.25,28.09,78.72,30.17,74.83,33.14z"/>
		<path class="st0" d="M97.11,23.24c-0.97-0.35-2.4,0.42-2.47,1.51C95.3,25.98,97.9,24.4,97.11,23.24z"/>
		<path class="st0" d="M88.55,25.73c36.7-19.67,84.3-18.67,107.49-5.53c2.5,1.24,5.42,1.34,7.85,2.75
			c4.11,2.49,8.05,5.27,12.01,7.99c-4.91-1.14-8.83-4.56-13.39-6.54C166.51,8.97,118.58,9.36,84.23,33.37
			c-0.73,0.63-1.52,1.17-2.33,1.67c2.31,0.02,4.58,0.04,6.8,0.04c14,0,28.58-0.35,43.75-1.05c2.1,0,3.68,0.76,4.72,2.28
			c1.05,1.52,1.58,3.33,1.58,5.42c-0.24,3.5-0.94,5.6-2.1,6.3c-1.17,0.7-3.38,1.05-6.65,1.05c-6.77,0-11.79,1.23-15.05,3.68
			c-3.27,2.45-5.31,5.48-6.12,9.1c-0.82,3.62-1.35,8.35-1.57,14.17v63.35c3.73-0.7,7.93-2.68,12.6-5.95
			c4.66-3.26,10.38-7.82,17.15-13.65c13.06-12.13,29.51-29.98,49.35-53.55c4.2-4.67,6.3-8.4,6.3-11.2c0-3.5-3.15-5.36-9.45-5.6
			c-1.63-0.23-2.75-0.88-3.32-1.92c-0.59-1.05-1.11-2.86-1.58-5.43c0-2.1,0.58-3.96,1.75-5.6c1.17-1.63,2.68-2.45,4.55-2.45
			c8.16,0.7,21,1.05,38.5,1.05c0.53,0,1.1,0,1.67-0.01c-7.38-6.35-15.2-12.2-23.96-16.54c-16.96-9.6-32.9-11.79-48.59-11.99
			c-21.07-0.26-41.65,4.61-63.27,14.65c-4.12,1.88-7.61,4.84-11.64,6.85c-1.78,0.82-3.24,2.14-4.46,3.67
			c5.45-1.76,9.71-5.96,15.06-8.01C88.18,24.15,88.41,24.74,88.55,25.73z"/>
		<path class="st0" d="M214.12,255.93c-4.15,1.98-8.29,4.03-11.38,7.58c4.42-2.28,8.91-4.56,12.89-7.58H214.12z"/>
		<path class="st0" d="M42.3,231.33c1.3,2.1,3.99,2.78,5.2,4.97c1.57,2.36,3.51,4.04,5.6,5.51c5.14-0.34,9.08-1.52,11.8-3.56
			c3.26-2.45,5.3-5.48,6.12-9.1c0.81-3.61,1.34-8.34,1.57-14.17V76.03c-0.23-5.83-0.76-10.55-1.57-14.17
			c-0.82-3.62-2.86-6.65-6.12-9.1c-3.06-2.29-7.67-3.5-13.79-3.65c0,0-0.01,0.01-0.01,0.01c-0.01,0-0.02-0.01-0.02-0.01
			c-0.41-0.01-0.81-0.03-1.23-0.03h-2.1c-1.98,0-3.45-0.29-4.42-0.88c-4.64,3.92-8.11,9.05-11.39,14.13
			C27.18,68.62,24.42,76.06,20.8,83c-6.39,12.79-9.47,26.79-12.36,40.64c-0.25,1.69-0.3,3.41-0.39,5.13
			c-0.2,4.48-0.13,8.79,0.46,13.28c0.51,2.54-1.45,5.34,0.47,7.52c-2,8.2,5.3,30.69,7.98,39.1c4.4,7.41,5.57,19.62,12.08,25.47
			c2.36,2.2,2.38,7.1,6.57,6.71c-0.26,0.65-0.54,1.29-0.82,1.95C37.1,225.82,40.14,228.18,42.3,231.33z M31.4,68.74
			c-0.65,1.53-1.43,2.99-2.37,4.37C29.07,71.33,30.16,69.93,31.4,68.74z M11.09,145.74c-0.33-2.92-0.28-5.87,0.01-8.8
			C11.89,139.8,11.91,142.84,11.09,145.74z M12.83,165.72c-0.44-1.54-0.67-3.13-0.62-4.74C12.74,162.5,12.97,164.11,12.83,165.72z
			 M12.69,168.76c0.82,1.64,1.4,3.38,1.39,5.24C13.29,172.36,12.84,170.57,12.69,168.76z M18.99,112.88
			c-1.14,3.57-1.7,7.37-3.75,10.6c0.59-6.26,2.8-12.34,5.86-17.85C20.55,108.09,19.73,110.47,18.99,112.88z M25.9,194.29
			c-1.24,0.56-2.41-2.06-1.32-2.74C25.63,191.79,26.38,193.29,25.9,194.29z M26.39,195.08c1.55,1.75,2.69,3.82,3.54,6.02
			C28.37,199.35,27.03,197.37,26.39,195.08z M30.84,203.84c-1.16,0.24-1.52-1.72-0.33-1.92C31.67,201.69,32.04,203.63,30.84,203.84z
			"/>
		<path class="st0" d="M277.64,137.09c0.02-2.96-0.47-5.86-1.15-8.71c-1.65-10.22-3.84-20.11-7.99-29.54
			c-1.36-3.02-2.28-6.28-4.15-9.04c-2.54-3.44-2.4-8.06-4.51-11.71c-5.81-9.93-11.95-19.31-19.32-27.77
			c-4.24,0.77-8.36,1.98-12.35,3.67c-8.29,3.5-16.97,9.8-26.07,18.9l-56.7,59.15c8.17,10.04,16.57,19.6,25.2,28.7
			c8.63,9.1,19.01,19.72,31.15,31.85c6.06,6.07,13.3,13.54,21.7,22.4c2.56,2.57,4.31,4.44,5.25,5.6c4.5,4.51,8.43,8.19,11.78,11.08
			c0.37-0.41,0.74-0.82,1.13-1.2c5.6-5.7,11-11.68,15.24-18.45c4.48-6.66,8.85-13.49,11.58-21.06c2.57-7.32,5.01-14.73,6.38-22.36
			c1.13-6.02,2.93-11.98,3.1-18.13C278.07,145.99,277.64,141.54,277.64,137.09z M259.21,132.6
			C253.51,97.76,261.44,113.6,259.21,132.6L259.21,132.6z M270.48,114.81c-1.04,0.15-1.27-1.62-0.23-1.76
			C271.3,112.89,271.52,114.66,270.48,114.81z"/>
		<path class="st0" d="M199.53,257.64c2.62-1.08,5.49-1.1,8.18-1.91c1.18-0.41,2.37-0.84,3.54-1.32
			c-30.25-33.7-57.34-64.35-81.24-91.94c-7.47-8.63-15.05-13.3-22.75-14v66.5c0.23,5.83,0.75,10.56,1.57,14.17
			c0.81,3.62,2.86,6.65,6.12,9.1c3.27,2.45,8.28,3.67,15.05,3.67h2.1c2.33,0,3.96,0.41,4.9,1.22c0.93,0.82,1.51,2.86,1.75,6.12
			c0,2.1-0.53,3.91-1.58,5.42c-1.05,1.52-2.62,2.28-4.72,2.28c-13.34-0.63-26.29-0.96-38.89-1.02c0.78,0.49,1.54,1.01,2.26,1.59
			c-2.13-0.29-4.25-0.81-6.24-1.62c-0.18,0-0.36,0-0.53,0c-4.89,0-9.99,0.05-15.27,0.16c2.01,1.24,4.02,2.47,6.02,3.77
			c8.84,6.01,19.51,10.44,29.78,13.4c1.04,0.24,2.12,0.11,3.18,0.08c9.7,9.65,70.93,5.06,81.14-6.77
			c-16.92,5.65-60.04,11.53-77.41,3.98C155.88,268.1,155.88,274.77,199.53,257.64z M111.81,269.93c-1.34-0.05-1.15-2.08,0.23-1.53
			C113.36,268.44,113.19,270.49,111.81,269.93z"/>
	</g>
</g>
</svg>
